<?xml version="1.0" encoding="utf-8"?>
<!-- Generator: Adobe Illustrator 21.1.0, SVG Export Plug-In . SVG Version: 6.00 Build 0)  -->
<svg version="1.1" id="start" xmlns="http://www.w3.org/2000/svg" xmlns:xlink="http://www.w3.org/1999/xlink" x="0px" y="0px"
	 viewBox="0 0 40 62" style="enable-background:new 0 0 40 62;" xml:space="preserve">
<style type="text/css">
	.st0{fill:#699FED;}
	.st1{fill:#BF7F7C;}
</style>
<title>bike-station-icon-green</title>
<path class="st0" d="M20,1C9,1,0,10,0,21c0,3.1,0.7,6.2,2.1,9L20,60.8L37.9,30c1.4-2.8,2.1-5.8,2.1-8.9V21C40,10,31,1,20,1z M20,52
	c0,0-17-21.6-17-31S10.6,4,20,4s17,7.6,17,17S20,52,20,52z"/>
<path class="st1" d="M20,4C10.6,4,3,11.6,3,21s17,31,17,31s17-21.6,17-31S29.4,4,20,4z M20,29.5c-4.7,0-8.5-3.8-8.5-8.5
	s3.8-8.5,8.5-8.5s8.5,3.8,8.5,8.5S24.7,29.5,20,29.5L20,29.5z"/>
</svg>
