<svg id="Layer_1" data-name="Layer 1" xmlns="http://www.w3.org/2000/svg" viewBox="0 0 40 62"><defs><style>.cls-1{fill:#e59995;}.cls-2{fill:#e74c3c;}.cls-3{fill:#bf7f7c;}</style></defs><title>static-Artboard 1</title><path class="cls-1" d="M40,21A20,20,0,1,0,2.14,30h0L20,60.75,37.86,30h0A19.84,19.84,0,0,0,40,21ZM20,33a12,12,0,1,1,7.94-3A12,12,0,0,1,20,33Z"/><path class="cls-2" d="M27.94,30a12,12,0,0,1-15.88,0Z"/><path class="cls-3" d="M20,9A12,12,0,1,0,32,21,12,12,0,0,0,20,9Zm0,19a7,7,0,1,1,7-7A7,7,0,0,1,20,28Z"/></svg>