<?xml version="1.0" encoding="utf-8"?>
<!-- Generator: Adobe Illustrator 21.1.0, SVG Export Plug-In . SVG Version: 6.00 Build 0)  -->
<svg version="1.1" id="Layer_1" xmlns="http://www.w3.org/2000/svg" xmlns:xlink="http://www.w3.org/1999/xlink" x="0px" y="0px"
	 viewBox="0 0 24 24" style="enable-background:new 0 0 24 24;" xml:space="preserve">
<style type="text/css">
	.st0{fill:#ffffff;}
</style>
<g>
	<path class="st0" d="M12,22.5C6.2,22.5,1.5,17.8,1.5,12C1.5,6.2,6.2,1.5,12,1.5c5.8,0,10.5,4.7,10.5,10.5
		C22.5,17.8,17.8,22.5,12,22.5z M12.5,21.5l0.6-0.1c4.4-0.5,7.9-4,8.4-8.4l0.1-0.6h-4v-1h4l-0.1-0.6c-0.5-4.4-4-7.9-8.4-8.4
		l-0.6-0.1v4h-1v-4l-0.6,0.1C6.6,3,3,6.6,2.6,10.9l-0.1,0.6h4v1h-4l0.1,0.6c0.5,4.4,4,7.9,8.4,8.4l0.6,0.1v-4h1V21.5z"/>
	<path class="st0" d="M12.8,2c4.9,0.4,8.8,4.3,9.2,9.2l0-0.3c-0.5-4.6-4.2-8.3-8.8-8.8L12.8,2 M11.2,2l-0.3,0c-4.6,0.5-8.3,4.2-8.8,8.8l0,0.3
		C2.4,6.3,6.3,2.4,11.2,2 M6,12H3.1H2h1.1H6 M22,12.8c-0.4,4.9-4.3,8.8-9.2,9.2l0.3,0c4.6-0.5,8.3-4.2,8.8-8.8L22,12.8 M2,12.8
		l0,0.3c0.5,4.6,4.2,8.3,8.8,8.8l0.3,0C6.3,21.6,2.4,17.7,2,12.8 M12,1C5.9,1,1,5.9,1,12c0,6.1,4.9,11,11,11s11-4.9,11-11
		C23,5.9,18.1,1,12,1L12,1z M11,7h2V3.1c4.2,0.5,7.5,3.8,7.9,7.9H17v2h3.9c-0.5,4.2-3.8,7.5-7.9,7.9V17h-2v3.9
		c-4.2-0.5-7.5-3.8-7.9-7.9H7v-2H3.1C3.5,6.8,6.8,3.5,11,3.1V7L11,7z"/>
</g>
</svg>
