<svg id="user-icon" xmlns="http://www.w3.org/2000/svg" xmlns:xlink="http://www.w3.org/1999/xlink" viewBox="0 0 40 40"><defs><style>.cls-1{fill:url(#linear-gradient);}.cls-2{fill:#fff;}</style><linearGradient id="linear-gradient" x1="1" y1="20" x2="39" y2="20" gradientUnits="userSpaceOnUse"><stop offset="0" stop-color="#26c6da"/><stop offset="1"/></linearGradient></defs><title>user-icon</title><circle class="cls-1" cx="20" cy="20" r="19"/><path class="cls-1" d="M20,2A18,18,0,1,1,2,20,18,18,0,0,1,20,2m0-1A19,19,0,1,0,39,20,19,19,0,0,0,20,1Z"/><path class="cls-2" d="M20,3A17,17,0,1,0,37,20,17,17,0,0,0,20,3Zm0,33A16,16,0,1,1,36,20,16,16,0,0,1,20,36Z"/></svg>